<svg xmlns="http://www.w3.org/2000/svg" viewBox="0 0 44.18 44.25"><defs><style>.cls-1{fill:#fff;}</style></defs><title>social-icon-1Map</title><g id="Layer_2" data-name="Layer 2"><g id="Layer_1-2" data-name="Layer 1"><path class="cls-1" d="M19.79,39.78A5.27,5.27,0,0,1,17,43.5a5.33,5.33,0,0,1-5.61-.21,5.33,5.33,0,0,1-2.53-5.16.59.59,0,0,0-.37-.68A18.07,18.07,0,0,1,.85,30.09a8.61,8.61,0,0,1-.78-2c-.24-1,.14-1.45,1.15-1.55a3.28,3.28,0,0,0,2.84-1.76,4.16,4.16,0,0,0,.37-1.68c.06-1.45,0-2.91.06-4.36a19.37,19.37,0,0,1,7-13.91A19.38,19.38,0,0,1,25.12,0,19.64,19.64,0,0,1,43.69,15.58c1.65,8-.85,14.75-7.23,20a10.29,10.29,0,0,1-1.22.88c-.23.17-.3.3-.2.57a5.53,5.53,0,1,1-10.6,3.14c0-.13-.2-.3-.3-.3-1.42-.1-2.87-.07-4.35-.07m.06-2.26c1.52,0,3,.07,4.56,0A21.85,21.85,0,0,0,28.6,37,17.61,17.61,0,0,0,40.38,12.44,17,17,0,0,0,26,2.24a16.91,16.91,0,0,0-13.5,4.42A17.15,17.15,0,0,0,6.65,19.42c0,1.18,0,2.4,0,3.58A5.43,5.43,0,0,1,2.7,28.34s-.1.07-.14.07c.95,2.49,4.8,6.17,7.19,7.09a5.61,5.61,0,0,1,10.1,2"/><path class="cls-1" d="M27,28.71c-4-.2-6.62-1.79-8.31-5A1.13,1.13,0,0,1,19.41,22c.47-.1.91.24,1.25.78a10.41,10.41,0,0,0,1.45,1.89,6.6,6.6,0,0,0,10.37-1.82A1.23,1.23,0,0,1,33.59,22a1.13,1.13,0,0,1,.95,1.66,8.39,8.39,0,0,1-4.93,4.42,20.12,20.12,0,0,1-2.63.6"/><path class="cls-1" d="M19.92,17.64a2.2,2.2,0,1,1,2.19-2.2,2.21,2.21,0,0,1-2.19,2.2"/><path class="cls-1" d="M35.38,15.41a2.24,2.24,0,0,1-2.16,2.23A2.17,2.17,0,0,1,31,15.44a2.18,2.18,0,1,1,4.35,0"/></g></g></svg>